<?xml version="1.0" standalone="no"?>
<!DOCTYPE svg PUBLIC "-//W3C//DTD SVG 20010904//EN"
 "http://www.w3.org/TR/2001/REC-SVG-20010904/DTD/svg10.dtd">
<svg version="1.0" xmlns="http://www.w3.org/2000/svg"
 width="260.000000pt" height="260.000000pt" viewBox="0 0 260.000000 260.000000"
 preserveAspectRatio="xMidYMid meet">
<metadata>
Created by potrace 1.14, written by Peter Selinger 2001-2017
</metadata>
<g transform="translate(0.000000,260.000000) scale(0.100000,-0.100000)"
fill="#000000" stroke="none">
<path d="M1005 1902 c-159 -261 -291 -479 -293 -483 -2 -5 262 -9 587 -9 325
0 591 2 591 4 0 7 -572 941 -584 952 -8 9 -84 -109 -301 -464z m336 -9 c16
-23 29 -44 29 -48 0 -4 7 -13 15 -21 12 -12 13 -20 3 -37 -10 -19 -9 -20 4 -9
13 11 19 7 37 -23 12 -20 17 -33 11 -30 -5 3 -10 1 -10 -4 0 -6 7 -11 16 -11
8 0 13 -4 10 -9 -3 -5 1 -12 10 -15 9 -4 14 -9 11 -13 -4 -3 0 -11 8 -17 10
-8 12 -16 5 -26 -8 -13 -10 -13 -10 1 0 9 -7 20 -16 23 -14 5 -15 4 -4 -9 7
-9 10 -19 6 -22 -4 -4 -11 -1 -16 7 -6 8 -10 10 -10 4 0 -8 -11 -9 -35 -4 -19
4 -35 4 -35 0 0 -5 -13 -5 -30 0 -21 6 -30 5 -30 -3 0 -8 -3 -7 -9 2 -7 10
-10 10 -13 1 -3 -9 -9 -8 -21 4 -16 16 -17 16 -17 -1 0 -15 -2 -16 -10 -3 -6
10 -10 11 -10 3 0 -20 -20 -15 -21 5 -1 15 -2 15 -6 1 -3 -13 -11 -15 -39 -9
-18 4 -34 5 -34 1 0 -4 -7 -8 -15 -8 -8 0 -15 6 -15 14 0 7 4 13 9 13 5 0 14
14 20 31 7 19 15 28 22 23 8 -4 9 -3 5 5 -6 10 29 81 40 81 9 0 -2 -26 -16
-38 -13 -11 -12 -11 7 -3 16 8 20 17 17 36 -2 14 0 25 6 25 6 0 8 5 5 10 -3 6
-3 10 2 10 4 0 14 14 21 30 8 17 18 27 24 24 7 -5 8 -2 4 5 -5 7 0 18 10 26
11 8 15 15 10 15 -5 0 -2 7 5 16 11 13 14 13 18 3 2 -8 17 -33 32 -56z"/>
<path d="M1312 1906 c4 -5 3 -19 -3 -33 -5 -13 -5 -22 0 -19 15 9 20 46 8 53
-7 3 -9 3 -5 -1z"/>
<path d="M1255 1859 c-4 -6 -5 -12 -2 -15 2 -3 7 2 10 11 7 17 1 20 -8 4z"/>
<path d="M1324 1839 c-4 -7 -3 -9 4 -5 5 3 13 0 15 -6 4 -9 6 -10 6 -1 1 17
-16 25 -25 12z"/>
<path d="M1239 1808 c15 -21 31 -23 31 -6 0 6 -3 8 -7 5 -3 -4 -13 -1 -22 6
-14 11 -14 10 -2 -5z"/>
<path d="M1373 1805 c0 -8 4 -12 9 -9 5 3 6 10 3 15 -9 13 -12 11 -12 -6z"/>
<path d="M1396 1762 c-3 -5 1 -9 9 -9 8 0 12 4 9 9 -3 4 -7 8 -9 8 -2 0 -6 -4
-9 -8z"/>
<path d="M1355 1740 c-16 -7 -17 -9 -3 -9 9 -1 20 4 23 9 7 11 7 11 -20 0z"/>
<path d="M1360 1711 c0 -6 4 -13 10 -16 6 -3 7 1 4 9 -7 18 -14 21 -14 7z"/>
<path d="M1216 1686 c3 -7 11 -13 19 -13 22 0 18 14 -4 20 -13 3 -18 0 -15 -7z"/>
<path d="M1190 1681 c0 -6 4 -13 10 -16 6 -3 7 1 4 9 -7 18 -14 21 -14 7z"/>
<path d="M1390 1679 c0 -3 9 -9 19 -12 13 -3 18 0 15 7 -5 13 -34 18 -34 5z"/>
<path d="M1155 1661 c-9 -15 15 -25 28 -12 9 9 7 10 -7 5 -13 -5 -17 -4 -12 4
4 7 5 12 2 12 -3 0 -7 -4 -11 -9z"/>
<path d="M1353 1655 c0 -8 4 -12 9 -9 5 3 6 10 3 15 -9 13 -12 11 -12 -6z"/>
<path d="M1741 1165 c-87 -32 -143 -68 -200 -131 -147 -160 -173 -389 -67
-571 192 -327 660 -326 846 3 160 284 -4 646 -325 714 -73 16 -186 9 -254 -15z
m210 -206 c1 -5 2 -13 3 -18 0 -5 4 -13 8 -16 4 -4 5 5 2 20 -4 22 -2 26 8 18
7 -6 30 -16 51 -22 23 -8 37 -19 37 -29 0 -13 -2 -14 -9 -4 -7 11 -9 11 -14
-1 -6 -15 15 -18 29 -4 9 8 24 -1 24 -14 0 -6 -4 -7 -10 -4 -5 3 -10 1 -10 -5
0 -7 6 -10 14 -7 16 6 50 -26 39 -36 -3 -4 -2 -7 4 -7 10 0 26 -38 28 -65 0
-5 3 -14 6 -20 3 -5 4 -23 3 -40 -2 -16 -4 -40 -5 -53 -1 -12 -6 -25 -10 -28
-5 -3 -7 -10 -4 -15 8 -12 -20 -40 -30 -31 -5 4 -5 1 -1 -5 14 -25 -6 -33 -25
-11 l-20 23 17 -28 c13 -22 14 -30 4 -42 -17 -20 -31 -19 -24 3 5 14 4 14 -4
2 -6 -8 -9 -17 -6 -22 11 -17 -63 -49 -118 -51 -16 -1 -28 -4 -28 -8 0 -9 -21
-6 -39 5 -11 7 -12 6 -6 -5 7 -11 6 -12 -6 -2 -14 11 -19 13 -40 13 -5 0 -7 6
-3 13 6 9 5 9 -7 0 -12 -9 -21 -8 -47 9 -18 11 -32 24 -32 29 0 5 -6 9 -12 9
-19 1 -64 69 -77 115 -15 53 -14 128 2 144 10 11 9 12 -1 6 -7 -4 -2 16 12 44
15 28 31 51 36 51 6 0 10 5 10 11 0 7 8 18 18 26 26 22 120 63 142 63 20 0 23
-18 5 -33 -6 -5 -4 -7 5 -4 8 2 16 9 16 15 1 7 2 16 3 20 1 11 61 2 62 -9z"/>
<path d="M1829 931 c6 -10 9 -20 8 -22 -1 -2 0 -3 2 -1 11 7 8 31 -5 36 -11 4
-12 1 -5 -13z"/>
<path d="M1755 920 c-3 -5 -1 -10 4 -10 6 0 11 5 11 10 0 6 -2 10 -4 10 -3 0
-8 -4 -11 -10z"/>
<path d="M1913 914 c0 -7 6 -15 13 -18 9 -3 11 1 7 11 -5 12 -3 14 8 8 8 -5
11 -4 6 0 -13 14 -34 14 -34 -1z"/>
<path d="M1995 900 c6 -30 16 -40 12 -12 -2 12 -6 24 -10 28 -3 4 -4 -4 -2
-16z"/>
<path d="M1885 902 c-13 -9 -17 -32 -6 -32 5 0 11 9 14 20 6 22 6 22 -8 12z"/>
<path d="M1774 879 c0 -12 4 -15 12 -9 6 6 14 7 17 3 4 -3 7 -2 7 4 0 6 -8 13
-18 15 -12 4 -18 -1 -18 -13z"/>
<path d="M1710 879 c0 -3 9 -9 19 -12 13 -3 18 0 15 7 -5 13 -34 18 -34 5z"/>
<path d="M1950 878 c0 -6 6 -8 14 -5 8 3 17 2 20 -4 2 -5 3 -4 2 2 -3 15 -36
21 -36 7z"/>
<path d="M1834 851 c13 -12 18 -13 28 -2 11 10 9 11 -6 5 -12 -5 -17 -4 -13 3
3 5 -1 10 -9 10 -13 0 -13 -2 0 -16z"/>
<path d="M2037 857 c4 -6 0 -8 -9 -5 -8 4 -15 1 -15 -6 0 -18 23 -15 35 4 7
12 7 17 -4 17 -7 0 -10 -5 -7 -10z"/>
<path d="M1755 840 c3 -5 8 -10 11 -10 2 0 4 5 4 10 0 6 -5 10 -11 10 -5 0 -7
-4 -4 -10z"/>
<path d="M2095 840 c3 -5 8 -10 11 -10 2 0 4 5 4 10 0 6 -5 10 -11 10 -5 0 -7
-4 -4 -10z"/>
<path d="M1833 823 c4 -3 1 -13 -6 -22 -11 -14 -10 -14 6 -2 20 15 22 31 5 31
-6 0 -8 -3 -5 -7z"/>
<path d="M1656 803 c-6 -14 -5 -15 5 -6 7 7 10 15 7 18 -3 3 -9 -2 -12 -12z"/>
<path d="M1900 816 c0 -2 7 -7 16 -10 8 -3 12 -2 9 4 -6 10 -25 14 -25 6z"/>
<path d="M2070 802 c0 -5 7 -9 15 -9 8 0 12 4 9 9 -3 4 -9 8 -15 8 -5 0 -9 -4
-9 -8z"/>
<path d="M1750 790 c-9 -6 -10 -10 -3 -10 6 0 15 5 18 10 8 12 4 12 -15 0z"/>
<path d="M1799 788 c-6 -21 -5 -38 1 -38 5 0 8 9 7 20 -1 17 -5 26 -8 18z"/>
<path d="M2039 783 c-1 -5 -1 -12 0 -17 1 -4 -3 -14 -8 -20 -8 -9 -7 -13 4
-13 8 0 11 5 8 10 -4 6 0 8 8 5 10 -4 15 1 15 12 0 11 -5 16 -15 12 -9 -3 -12
-1 -7 6 4 7 5 12 2 12 -3 0 -7 -3 -7 -7z"/>
<path d="M2115 780 c6 -10 4 -12 -11 -6 -15 6 -17 5 -6 -5 9 -9 15 -10 23 -2
8 8 7 13 -2 18 -8 6 -10 4 -4 -5z"/>
<path d="M1659 753 c-13 -15 -12 -15 7 -5 16 8 24 8 34 -1 12 -10 12 -9 1 6
-17 21 -25 21 -42 0z"/>
<path d="M1736 758 c3 -5 10 -6 15 -3 13 9 11 12 -6 12 -8 0 -12 -4 -9 -9z"/>
<path d="M1930 760 c0 -5 5 -10 10 -10 6 0 10 5 10 10 0 6 -4 10 -10 10 -5 0
-10 -4 -10 -10z"/>
<path d="M1772 731 c-11 -7 -11 -9 0 -14 9 -3 15 1 15 9 0 8 -1 14 -1 14 -1 0
-7 -4 -14 -9z"/>
<path d="M1813 725 c0 -8 7 -11 16 -7 13 5 14 3 4 -9 -10 -12 -8 -15 6 -15 12
0 17 5 13 15 -4 10 -1 12 9 6 8 -4 12 -6 9 -2 -3 3 -9 6 -15 7 -5 1 -17 6 -26
10 -11 6 -16 5 -16 -5z"/>
<path d="M2075 729 c-4 -6 -5 -12 -2 -15 2 -3 7 2 10 11 7 17 1 20 -8 4z"/>
<path d="M1713 715 c0 -8 6 -16 13 -19 7 -3 10 2 7 15 -6 22 -20 26 -20 4z"/>
<path d="M1913 715 c0 -8 4 -12 9 -9 5 3 6 10 3 15 -9 13 -12 11 -12 -6z"/>
<path d="M1976 718 c3 -4 11 -5 19 -1 21 7 19 12 -4 10 -11 0 -18 -5 -15 -9z"/>
<path d="M2027 693 c3 -7 6 -13 8 -13 2 0 5 6 8 13 3 8 -1 14 -8 14 -7 0 -11
-6 -8 -14z"/>
<path d="M1874 680 c0 -13 4 -16 10 -10 7 7 7 13 0 20 -6 6 -10 3 -10 -10z"/>
<path d="M1645 680 c-2 -3 10 -6 28 -5 18 1 39 -3 47 -8 13 -9 13 -9 2 3 -13
15 -69 22 -77 10z"/>
<path d="M1790 680 c0 -5 5 -10 10 -10 6 0 10 5 10 10 0 6 -4 10 -10 10 -5 0
-10 -4 -10 -10z"/>
<path d="M2094 682 c4 -3 14 -7 22 -8 9 -1 13 0 10 4 -4 3 -14 7 -22 8 -9 1
-13 0 -10 -4z"/>
<path d="M1975 670 c-4 -6 1 -7 11 -3 13 5 15 3 9 -7 -5 -9 -4 -11 4 -6 6 4 9
12 6 17 -8 12 -22 12 -30 -1z"/>
<path d="M1750 660 c14 -9 7 -14 -13 -11 -5 1 -5 -3 -2 -9 4 -6 9 -9 12 -6 3
3 13 1 23 -4 12 -6 17 -5 17 5 0 8 -7 11 -16 7 -13 -5 -14 -3 -4 9 10 12 8 15
-10 16 -17 2 -19 0 -7 -7z"/>
<path d="M1839 663 c-1 -5 -1 -12 0 -17 1 -5 -4 -6 -12 -3 -7 3 -14 -1 -14 -8
0 -10 5 -11 16 -5 9 4 20 8 24 8 5 0 12 3 15 7 4 4 3 6 -3 5 -21 -5 -29 1 -15
10 10 6 11 10 3 10 -7 0 -14 -3 -14 -7z"/>
<path d="M2048 653 c-10 -2 -18 -9 -18 -15 0 -6 3 -8 7 -5 3 4 11 3 17 -3 8
-6 12 -3 12 11 0 10 0 18 -1 18 0 -1 -8 -3 -17 -6z"/>
<path d="M1654 634 c1 -7 6 -17 11 -21 4 -4 5 -3 1 4 -3 7 1 13 11 15 15 3 15
5 -3 10 -15 4 -21 1 -20 -8z"/>
<path d="M2000 615 c-7 -8 -16 -12 -21 -9 -5 3 -9 0 -9 -6 0 -7 6 -10 13 -7 6
2 18 -3 25 -12 11 -14 12 -13 3 5 -7 15 -7 24 1 32 7 7 9 12 6 12 -3 0 -11 -7
-18 -15z"/>
<path d="M2115 620 c6 -9 4 -12 -6 -8 -10 4 -15 -1 -15 -12 0 -10 6 -16 12
-13 18 7 25 31 12 39 -7 5 -8 2 -3 -6z"/>
<path d="M1679 608 c-6 -20 -5 -38 1 -48 5 -7 7 0 6 19 -1 26 -4 39 -7 29z"/>
<path d="M1718 592 c-3 -11 0 -19 7 -19 7 0 10 8 7 19 -2 10 -6 18 -7 18 -1 0
-5 -8 -7 -18z"/>
<path d="M1794 595 c1 -8 6 -18 11 -22 4 -5 5 -2 0 6 -6 11 -4 13 10 7 15 -5
16 -4 5 9 -16 19 -29 19 -26 0z"/>
<path d="M1740 560 c-8 -5 -10 -10 -5 -10 6 0 17 5 25 10 8 5 11 10 5 10 -5 0
-17 -5 -25 -10z"/>
<path d="M1825 560 c12 -19 13 -31 4 -51 -5 -10 -3 -16 6 -16 8 0 11 7 7 16
-5 14 -4 14 14 1 18 -14 18 -14 1 6 -9 11 -15 23 -12 26 3 3 -2 11 -12 19 -15
12 -16 12 -8 -1z"/>
<path d="M2030 559 c0 -3 9 -9 19 -12 13 -3 18 0 15 7 -5 13 -34 18 -34 5z"/>
<path d="M1971 524 c0 -11 3 -14 6 -6 3 7 2 16 -1 19 -3 4 -6 -2 -5 -13z"/>
<path d="M1760 520 c-9 -6 -10 -10 -3 -10 6 0 15 5 18 10 8 12 4 12 -15 0z"/>
<path d="M1896 518 c3 -5 10 -6 15 -3 13 9 11 12 -6 12 -8 0 -12 -4 -9 -9z"/>
<path d="M1780 478 c0 -4 4 -8 9 -8 6 0 12 4 15 8 3 5 -1 9 -9 9 -8 0 -15 -4
-15 -9z"/>
<path d="M1873 475 c0 -8 6 -16 13 -19 7 -3 10 2 7 15 -6 22 -20 26 -20 4z"/>
<path d="M1946 458 c3 -5 10 -6 15 -3 13 9 11 12 -6 12 -8 0 -12 -4 -9 -9z"/>
<path d="M333 1131 c-5 -3 -9 -197 -8 -431 l0 -425 433 -3 432 -2 -2 432 -3
433 -422 1 c-232 0 -426 -2 -430 -5z m329 -225 c6 -8 8 -8 8 1 0 7 27 11 85
11 58 0 83 -3 78 -10 -4 -7 -1 -8 8 -2 16 10 85 16 115 9 19 -4 21 -9 14 -45
-5 -27 -4 -40 4 -40 6 0 4 -5 -4 -10 -9 -6 -10 -10 -3 -10 8 0 9 -9 3 -30 -5
-19 -5 -30 1 -30 6 0 8 -4 5 -8 -7 -11 -8 -67 -3 -112 2 -23 -2 -39 -12 -48
-9 -8 -11 -11 -5 -8 7 4 14 -6 16 -25 3 -22 1 -29 -9 -25 -7 3 -13 1 -13 -4 0
-6 7 -10 16 -10 8 0 13 -4 10 -9 -4 -5 -34 -10 -69 -10 -34 0 -71 -1 -82 -1
-96 -3 -185 2 -180 10 3 6 1 10 -4 10 -6 0 -11 -5 -11 -10 0 -6 -19 -9 -43 -9
l-43 2 0 44 c1 23 5 43 11 43 7 0 7 3 0 8 -16 11 -15 54 1 48 8 -3 14 -1 14 4
0 6 -6 10 -13 10 -17 0 -18 30 -3 49 8 11 8 13 -1 8 -8 -5 -11 10 -10 53 1 33
7 60 12 60 7 0 7 3 0 8 -5 4 -11 18 -11 30 -1 19 3 23 21 20 12 -3 22 0 22 7
0 6 -10 10 -22 7 -14 -2 -22 1 -22 11 0 12 13 15 56 15 31 0 59 -6 63 -12z"/>
<path d="M636 898 c5 -7 2 -9 -8 -6 -8 4 -15 0 -15 -7 0 -10 5 -11 19 -4 16 9
17 29 2 29 -3 0 -2 -5 2 -12z"/>
<path d="M804 895 c-4 -8 -10 -13 -14 -10 -5 3 -12 0 -16 -6 -5 -8 -3 -9 6 -4
10 6 12 3 7 -11 -6 -17 -6 -17 5 -3 7 9 16 16 20 15 3 -1 10 3 15 8 5 6 2 6
-6 1 -11 -6 -13 -4 -8 8 3 10 4 17 1 17 -2 0 -7 -7 -10 -15z"/>
<path d="M570 838 c0 -11 12 -10 30 2 12 7 10 9 -8 7 -12 0 -22 -5 -22 -9z"/>
<path d="M830 838 c0 -4 4 -8 9 -8 6 0 12 4 15 8 3 5 -1 9 -9 9 -8 0 -15 -4
-15 -9z"/>
<path d="M916 834 c-3 -8 0 -16 6 -20 7 -5 8 -2 3 6 -6 9 -4 12 7 8 8 -4 15
-1 15 6 0 17 -25 16 -31 0z"/>
<path d="M628 823 c6 -2 18 -2 25 0 6 3 1 5 -13 5 -14 0 -19 -2 -12 -5z"/>
<path d="M812 811 c-11 -7 -11 -9 0 -14 9 -3 15 1 15 9 0 8 -1 14 -1 14 -1 0
-7 -4 -14 -9z"/>
<path d="M853 805 c0 -7 8 -10 19 -7 10 2 18 6 18 7 0 1 -8 5 -18 7 -11 3 -19
0 -19 -7z"/>
<path d="M630 805 c0 -7 30 -13 34 -7 3 4 -4 9 -15 9 -10 1 -19 0 -19 -2z"/>
<path d="M790 786 c0 -2 7 -7 16 -10 8 -3 12 -2 9 4 -6 10 -25 14 -25 6z"/>
<path d="M865 780 c-3 -6 1 -7 9 -4 18 7 21 14 7 14 -6 0 -13 -4 -16 -10z"/>
<path d="M581 764 c0 -11 3 -14 6 -6 3 7 2 16 -1 19 -3 4 -6 -2 -5 -13z"/>
<path d="M668 752 c-3 -11 0 -19 7 -19 7 0 10 8 7 19 -2 10 -6 18 -7 18 -1 0
-5 -8 -7 -18z"/>
<path d="M713 755 c0 -8 4 -12 9 -9 5 3 6 10 3 15 -9 13 -12 11 -12 -6z"/>
<path d="M793 755 c0 -8 4 -12 9 -9 5 3 6 10 3 15 -9 13 -12 11 -12 -6z"/>
<path d="M825 760 c-3 -6 1 -7 9 -4 18 7 21 14 7 14 -6 0 -13 -4 -16 -10z"/>
<path d="M845 742 c-13 -9 -17 -32 -6 -32 5 0 11 9 14 20 6 22 6 22 -8 12z"/>
<path d="M633 725 c0 -8 4 -15 9 -15 4 0 8 4 8 9 0 6 -4 12 -8 15 -5 3 -9 -1
-9 -9z"/>
<path d="M736 726 c3 -7 11 -13 19 -13 22 0 18 14 -4 20 -13 3 -18 0 -15 -7z"/>
<path d="M710 721 c0 -6 4 -13 10 -16 6 -3 7 1 4 9 -7 18 -14 21 -14 7z"/>
<path d="M595 701 c6 -10 4 -13 -7 -9 -8 4 -15 0 -15 -8 0 -7 5 -10 10 -7 6 4
8 0 5 -9 -4 -8 -1 -15 6 -15 13 0 14 43 1 54 -4 5 -4 2 0 -6z"/>
<path d="M668 692 c3 -9 1 -13 -5 -9 -5 3 -10 0 -10 -7 0 -8 7 -12 15 -8 11 4
13 1 7 -9 -4 -8 -4 -11 0 -6 13 11 12 54 -1 54 -7 0 -10 -7 -6 -15z"/>
<path d="M794 691 c13 -12 18 -13 28 -2 11 10 9 11 -6 5 -12 -5 -17 -4 -13 3
3 5 -1 10 -9 10 -13 0 -13 -2 0 -16z"/>
<path d="M695 691 c-3 -5 -2 -12 3 -15 5 -3 9 1 9 9 0 17 -3 19 -12 6z"/>
<path d="M861 674 c0 -11 3 -14 6 -6 3 7 2 16 -1 19 -3 4 -6 -2 -5 -13z"/>
<path d="M886 678 c3 -5 10 -6 15 -3 13 9 11 12 -6 12 -8 0 -12 -4 -9 -9z"/>
<path d="M835 671 c-3 -5 -2 -12 3 -15 5 -3 9 1 9 9 0 17 -3 19 -12 6z"/>
<path d="M735 650 c-4 -6 -10 -8 -14 -6 -4 3 -8 -1 -8 -9 0 -8 6 -16 13 -19 9
-3 11 1 7 11 -4 10 -2 14 4 10 5 -3 10 0 10 8 0 18 -3 19 -12 5z"/>
<path d="M773 645 c0 -7 8 -10 19 -7 10 2 18 6 18 7 0 1 -8 5 -18 7 -11 3 -19
0 -19 -7z"/>
<path d="M896 646 c3 -7 11 -13 19 -13 22 0 18 14 -4 20 -13 3 -18 0 -15 -7z"/>
<path d="M630 640 c0 -5 5 -10 10 -10 6 0 10 5 10 10 0 6 -4 10 -10 10 -5 0
-10 -4 -10 -10z"/>
<path d="M590 611 c4 -9 9 -20 10 -26 1 -5 4 -12 7 -15 4 -3 2 1 -2 9 -6 10
-4 13 6 9 10 -4 15 1 15 13 0 14 -3 16 -15 6 -12 -10 -14 -9 -9 4 4 9 1 16 -7
16 -10 0 -11 -5 -5 -16z"/>
<path d="M873 618 c2 -7 -3 -19 -12 -26 -14 -11 -13 -12 5 -3 12 6 25 7 30 3
5 -4 3 0 -4 9 -6 9 -9 19 -5 22 3 4 1 7 -6 7 -7 0 -11 -6 -8 -12z"/>
<path d="M946 615 c5 -11 4 -16 -3 -12 -5 3 -10 0 -10 -8 0 -12 3 -12 16 -3 9
7 17 13 19 14 1 1 -4 7 -13 14 -13 11 -14 10 -9 -5z"/>
<path d="M654 598 c-4 -5 -3 -12 0 -15 3 -4 6 -1 6 6 0 7 4 10 9 6 5 -3 12 -2
15 3 3 5 -2 9 -10 9 -8 0 -17 -4 -20 -9z"/>
<path d="M753 604 c8 -9 47 -13 51 -6 2 4 -9 8 -25 8 -17 1 -28 0 -26 -2z"/>
<path d="M749 584 c6 -3 7 -12 4 -20 -3 -8 -1 -14 5 -14 14 0 8 33 -7 36 -6 1
-7 0 -2 -2z"/>
<path d="M627 559 c7 -9 10 -19 6 -22 -3 -4 -1 -7 5 -7 17 0 15 16 -5 31 -16
12 -17 12 -6 -2z"/>
<path d="M908 552 c-4 -12 1 -18 13 -18 12 0 15 4 9 12 -6 6 -7 14 -3 17 3 4
2 7 -4 7 -6 0 -13 -8 -15 -18z"/>
<path d="M796 538 c5 -7 2 -9 -9 -5 -11 4 -14 2 -10 -9 4 -11 9 -12 19 -3 12
10 11 29 -2 29 -3 0 -2 -5 2 -12z"/>
<path d="M570 518 c0 -4 4 -8 9 -8 6 0 12 4 15 8 3 5 -1 9 -9 9 -8 0 -15 -4
-15 -9z"/>
<path d="M681 514 c0 -11 3 -14 6 -6 3 7 2 16 -1 19 -3 4 -6 -2 -5 -13z"/>
<path d="M834 513 c-10 -7 -13 -13 -7 -13 7 0 14 4 18 9 3 6 14 8 25 6 11 -2
20 0 20 5 0 13 -35 8 -56 -7z"/>
</g>
</svg>
