<svg viewBox="0 0 140 24" xmlns="http://www.w3.org/2000/svg">
<path d="m36.7 17c0.0653 0 0.126-0.0607 0.182-0.182 0.0653-0.1307 0.098-0.35 0.098-0.658v-6.72c0-0.29867-0.0327-0.51333-0.098-0.644-0.056-0.13067-0.1167-0.196-0.182-0.196h2.702c-0.0653 0-0.1307 0.06533-0.196 0.196-0.0653 0.12133-0.098 0.34067-0.098 0.658v6.706c0 0.2987 0.0327 0.5133 0.098 0.644s0.1307 0.196 0.196 0.196h-2.702zm6.7756 0.14c-0.644 0-1.1107-0.1353-1.4-0.406-0.2894-0.28-0.434-0.7327-0.434-1.358v-3.528h-1.26v-1.4c0.4293 0 0.7653-0.0513 1.008-0.154 0.2426-0.112 0.4153-0.30333 0.518-0.574 0.1026-0.27067 0.154-0.64867 0.154-1.134h1.568v1.862h2.394c-0.0654 0.1867-0.1307 0.42-0.196 0.7-0.056 0.2707-0.084 0.504-0.084 0.7h-2.114v2.758c0 0.4293 0.0326 0.7233 0.098 0.882 0.0653 0.1587 0.2193 0.238 0.462 0.238 0.1586 0 0.3313-0.056 0.518-0.168 0.196-0.112 0.3826-0.2473 0.56-0.406 0.1866-0.168 0.3406-0.3267 0.462-0.476v0.434l0.14 1.358c-0.112 0.0933-0.28 0.196-0.504 0.308-0.224 0.1027-0.4994 0.1867-0.826 0.252-0.3174 0.0747-0.672 0.112-1.064 0.112zm6.9106 0c-0.7373 0-1.3533-0.0747-1.848-0.224-0.4853-0.1587-0.8727-0.3827-1.162-0.672-0.2893-0.2987-0.4947-0.658-0.616-1.078s-0.182-0.896-0.182-1.428c0-1.0547 0.294-1.89 0.882-2.506s1.4887-0.924 2.702-0.924c0.7093 0 1.2833 0.098 1.722 0.294 0.448 0.196 0.7887 0.4573 1.022 0.784s0.392 0.6907 0.476 1.092c0.0933 0.392 0.14 0.7887 0.14 1.19v0.658c0-0.028-0.1307-0.056-0.392-0.084-0.252-0.0373-0.6813-0.056-1.288-0.056h-3.248c0 0.5133 0.154 0.9007 0.462 1.162 0.3173 0.252 0.8307 0.378 1.54 0.378 0.5973 0 1.1293-0.07 1.596-0.21 0.476-0.1493 0.8213-0.2893 1.036-0.42v0.42l0.14 1.064c-0.1773 0.1213-0.518 0.2473-1.022 0.378-0.504 0.1213-1.1573 0.182-1.96 0.182zm-1.274-4.158h2.422c0-0.2053-0.0467-0.406-0.14-0.602-0.084-0.196-0.224-0.3547-0.42-0.476-0.196-0.1307-0.4667-0.196-0.812-0.196s-0.6253 0.0513-0.84 0.154c-0.2053 0.1027-0.3593 0.2287-0.462 0.378-0.0933 0.1493-0.14 0.3033-0.14 0.462 0 0.0933 0.028 0.1633 0.084 0.21s0.1587 0.07 0.308 0.07zm5.5917 4.018c0.0653 0 0.126-0.0653 0.182-0.196 0.0653-0.1307 0.098-0.3453 0.098-0.644v-4.732c0-0.2987-0.0327-0.5087-0.098-0.63-0.056-0.1307-0.1167-0.2007-0.182-0.21 0.4107 0 0.8307-0.028 1.26-0.084 0.4293-0.0653 0.7653-0.1307 1.008-0.196v0.854l-0.028 0.182 0.028 0.028c0.028-0.0653 0.1167-0.182 0.266-0.35s0.364-0.3267 0.644-0.476c0.28-0.1587 0.6253-0.238 1.036-0.238 0.868 0 1.5307 0.2473 1.988 0.742 0.4667 0.4947 0.7 1.2693 0.7 2.324v2.786c0 0.2987 0.028 0.5133 0.084 0.644 0.0653 0.1307 0.1307 0.196 0.196 0.196h-2.548c0.0653 0 0.126-0.0653 0.182-0.196 0.0653-0.1307 0.098-0.3453 0.098-0.644v-2.744c0-0.4387-0.0467-0.7793-0.14-1.022-0.0933-0.252-0.224-0.4293-0.392-0.532-0.1587-0.1027-0.3453-0.154-0.56-0.154-0.2613 0-0.5133 0.0653-0.756 0.196-0.2333 0.1213-0.4247 0.3173-0.574 0.588-0.1493 0.2613-0.224 0.6113-0.224 1.05v2.618c0 0.2987 0.028 0.5133 0.084 0.644 0.0653 0.1307 0.1307 0.196 0.196 0.196h-2.548zm9.254 0c0.0653-0.0093 0.126-0.0793 0.182-0.21 0.0653-0.1307 0.098-0.3407 0.098-0.63v-2.618c0-0.3733-0.0373-0.6953-0.112-0.966-0.0653-0.28-0.1773-0.4947-0.336-0.644s-0.3733-0.224-0.644-0.224c-0.4573 0-0.8307 0.1633-1.12 0.49-0.28 0.3267-0.42 0.8213-0.42 1.484h-1.022c0-0.448 0.07-0.8727 0.21-1.274 0.14-0.4107 0.3407-0.77 0.602-1.078 0.2613-0.3173 0.574-0.5647 0.938-0.742 0.364-0.1867 0.7653-0.28 1.204-0.28 0.56 0 1.0407 0.1027 1.442 0.308 0.4013 0.196 0.7093 0.5273 0.924 0.994s0.322 1.1013 0.322 1.904v2.646c0 0.2893 0.028 0.4993 0.084 0.63 0.0653 0.1307 0.1307 0.2007 0.196 0.21h-2.548zm7.2073 0.14c-0.8307 0-1.5307-0.0467-2.1-0.14-0.5694-0.0933-0.9614-0.1867-1.176-0.28v-0.42l-0.294-1.372c0.2426 0.1773 0.6953 0.3547 1.358 0.532 0.6626 0.1773 1.4746 0.266 2.436 0.266 0.2893 0 0.518-0.0187 0.686-0.056 0.1773-0.0373 0.3033-0.098 0.378-0.182 0.0746-0.084 0.112-0.1913 0.112-0.322 0-0.1587-0.0607-0.28-0.182-0.364-0.112-0.084-0.3174-0.1493-0.616-0.196-0.2987-0.056-0.7327-0.1213-1.302-0.196-0.7187-0.0933-1.288-0.224-1.708-0.392-0.42-0.1773-0.7187-0.4013-0.896-0.672-0.168-0.28-0.252-0.6207-0.252-1.022 0-0.3733 0.0886-0.7093 0.266-1.008 0.1866-0.308 0.504-0.5507 0.952-0.728 0.4573-0.1867 1.092-0.28 1.904-0.28 0.7653 0 1.4373 0.0467 2.016 0.14 0.5786 0.0933 0.994 0.1867 1.246 0.28v0.42l0.28 1.232c-0.2147-0.14-0.6347-0.2847-1.26-0.434-0.6254-0.1493-1.4187-0.224-2.38-0.224-0.3734 0-0.6394 0.0373-0.798 0.112-0.1587 0.0747-0.238 0.2053-0.238 0.392 0 0.0933 0.0233 0.1727 0.07 0.238 0.056 0.0653 0.1586 0.126 0.308 0.182 0.1493 0.056 0.364 0.112 0.644 0.168 0.28 0.0467 0.6486 0.098 1.106 0.154 0.7933 0.1027 1.3906 0.2473 1.792 0.434 0.4013 0.1773 0.672 0.4013 0.812 0.672 0.14 0.2613 0.21 0.5787 0.21 0.952 0 0.476-0.1214 0.8727-0.364 1.19-0.2334 0.308-0.602 0.5413-1.106 0.7-0.4947 0.1493-1.1294 0.224-1.904 0.224z" fill="#5A5A5A"/>
<path d="m79.141 17c0.0653 0 0.1306-0.0653 0.196-0.196 0.0653-0.1307 0.098-0.3453 0.098-0.644v-6.72c0-0.29867-0.0327-0.50867-0.098-0.63-0.0654-0.13067-0.1307-0.20067-0.196-0.21h2.59c-0.0187 0-0.0094 0.06533 0.028 0.196 0.0373 0.13067 0.126 0.35467 0.266 0.672 0.056 0.12133 0.154 0.336 0.294 0.644 0.1493 0.308 0.3266 0.6767 0.532 1.106 0.2053 0.42 0.4246 0.8727 0.658 1.358 0.2333 0.4853 0.4713 0.98 0.714 1.484 0.2426 0.4947 0.4713 0.9613 0.686 1.4h0.014c0.224-0.448 0.4573-0.9193 0.7-1.414 0.2426-0.504 0.4853-1.0033 0.728-1.498 0.2426-0.4947 0.4666-0.952 0.672-1.372 0.2053-0.4293 0.378-0.7933 0.518-1.092 0.1493-0.308 0.252-0.52267 0.308-0.644 0.1306-0.29867 0.2146-0.51333 0.252-0.644 0.0466-0.13067 0.0606-0.196 0.042-0.196h2.576c-0.0654 0-0.1307 0.06533-0.196 0.196-0.0654 0.13067-0.098 0.35-0.098 0.658v6.706c0 0.2987 0.0326 0.5133 0.098 0.644 0.0653 0.1307 0.1306 0.196 0.196 0.196h-2.142c0.0653 0 0.126-0.0653 0.182-0.196 0.0653-0.1307 0.098-0.3453 0.098-0.644v-5.796h-0.028l-0.63 1.26c-0.2147 0.448-0.434 0.9007-0.658 1.358-0.224 0.448-0.434 0.882-0.63 1.302-0.196 0.4107-0.3734 0.7793-0.532 1.106-0.1494 0.3267-0.266 0.5833-0.35 0.77-0.1307 0.2893-0.2007 0.4993-0.21 0.63 0 0.1307 0.0233 0.2007 0.07 0.21h-1.96c0.0466 0 0.07-0.0607 0.07-0.182 0-0.1307-0.07-0.35-0.21-0.658-0.0654-0.1587-0.1727-0.392-0.322-0.7-0.1494-0.308-0.322-0.6673-0.518-1.078-0.1867-0.42-0.392-0.8587-0.616-1.316-0.224-0.4667-0.448-0.9333-0.672-1.4-0.2147-0.4667-0.42-0.9007-0.616-1.302h-0.042v5.796c0 0.2987 0.0326 0.5133 0.098 0.644 0.0653 0.1307 0.1306 0.196 0.196 0.196h-2.156zm15.74 0.14c-1.0173 0-1.7313-0.182-2.142-0.546-0.4107-0.3733-0.616-0.8727-0.616-1.498 0-0.4387 0.1073-0.812 0.322-1.12 0.224-0.3173 0.5553-0.56 0.994-0.728 0.448-0.168 1.0127-0.252 1.694-0.252 0.4853 0 0.9053 0.0373 1.26 0.112 0.364 0.0653 0.658 0.1447 0.882 0.238 0.2333 0.0933 0.3967 0.1727 0.49 0.238 0-0.5507-0.07-0.994-0.21-1.33-0.1307-0.336-0.3453-0.5787-0.644-0.728-0.2987-0.1587-0.7047-0.238-1.218-0.238-0.5507 0-1.0453 0.0653-1.484 0.196-0.4293 0.1213-0.7747 0.2567-1.036 0.406-0.2613 0.14-0.4247 0.2427-0.49 0.308v-0.28l-0.14-1.05c0.084-0.0373 0.266-0.098 0.546-0.182 0.28-0.0933 0.6487-0.1773 1.106-0.252 0.4573-0.084 0.994-0.126 1.61-0.126 0.784 0 1.4233 0.112 1.918 0.336 0.504 0.2147 0.8727 0.5507 1.106 1.008 0.2427 0.448 0.364 1.0173 0.364 1.708v2.8c0 0.2613 0.028 0.4527 0.084 0.574 0.0653 0.112 0.1307 0.2007 0.196 0.266h-1.708v-0.42l0.028-0.266-0.028-0.014c-0.1493 0.14-0.3267 0.2613-0.532 0.364s-0.4293 0.1913-0.672 0.266c-0.2427 0.0653-0.5087 0.1167-0.798 0.154-0.28 0.0373-0.574 0.056-0.882 0.056zm0.462-0.994c0.504 0 0.938-0.0513 1.302-0.154s0.6393-0.238 0.826-0.406c0.196-0.1773 0.294-0.378 0.294-0.602 0-0.28-0.1867-0.518-0.56-0.714-0.364-0.196-0.9333-0.294-1.708-0.294-0.7187 0-1.2273 0.0933-1.526 0.28-0.2893 0.1867-0.434 0.4667-0.434 0.84 0 0.364 0.14 0.63 0.42 0.798 0.2893 0.168 0.7513 0.252 1.386 0.252zm5.3405 0.854c0.065 0 0.126-0.0653 0.182-0.196 0.065-0.1307 0.098-0.3453 0.098-0.644v-4.732c0-0.2987-0.033-0.5087-0.098-0.63-0.056-0.1307-0.117-0.2007-0.182-0.21 0.411 0 0.765-0.028 1.064-0.084 0.308-0.0653 0.523-0.1307 0.644-0.196v0.854l-0.028 0.182 0.028 0.028c0.14-0.1773 0.317-0.3453 0.532-0.504 0.224-0.1587 0.499-0.2893 0.826-0.392 0.327-0.112 0.709-0.168 1.148-0.168 0.868 0 1.531 0.2473 1.988 0.742 0.467 0.4947 0.7 1.2693 0.7 2.324v2.786c0 0.2987 0.028 0.5133 0.084 0.644 0.065 0.1307 0.131 0.196 0.196 0.196h-1.988c0.065 0 0.126-0.0653 0.182-0.196 0.065-0.1307 0.098-0.3453 0.098-0.644v-2.744c0-0.5507-0.07-0.98-0.21-1.288s-0.336-0.5227-0.588-0.644c-0.243-0.1307-0.527-0.196-0.854-0.196-0.345 0-0.681 0.0747-1.008 0.224s-0.593 0.3873-0.798 0.714-0.308 0.7653-0.308 1.316v2.618c0 0.2987 0.028 0.5133 0.084 0.644 0.065 0.1307 0.131 0.196 0.196 0.196h-1.988zm11.055 0.14c-1.017 0-1.731-0.182-2.142-0.546-0.411-0.3733-0.616-0.8727-0.616-1.498 0-0.4387 0.107-0.812 0.322-1.12 0.224-0.3173 0.555-0.56 0.994-0.728 0.448-0.168 1.013-0.252 1.694-0.252 0.485 0 0.905 0.0373 1.26 0.112 0.364 0.0653 0.658 0.1447 0.882 0.238 0.233 0.0933 0.397 0.1727 0.49 0.238 0-0.5507-0.07-0.994-0.21-1.33-0.131-0.336-0.345-0.5787-0.644-0.728-0.299-0.1587-0.705-0.238-1.218-0.238-0.551 0-1.045 0.0653-1.484 0.196-0.429 0.1213-0.775 0.2567-1.036 0.406-0.261 0.14-0.425 0.2427-0.49 0.308v-0.28l-0.14-1.05c0.084-0.0373 0.266-0.098 0.546-0.182 0.28-0.0933 0.649-0.1773 1.106-0.252 0.457-0.084 0.994-0.126 1.61-0.126 0.784 0 1.423 0.112 1.918 0.336 0.504 0.2147 0.873 0.5507 1.106 1.008 0.243 0.448 0.364 1.0173 0.364 1.708v2.8c0 0.2613 0.028 0.4527 0.084 0.574 0.065 0.112 0.131 0.2007 0.196 0.266h-1.708v-0.42l0.028-0.266-0.028-0.014c-0.149 0.14-0.327 0.2613-0.532 0.364s-0.429 0.1913-0.672 0.266c-0.243 0.0653-0.509 0.1167-0.798 0.154-0.28 0.0373-0.574 0.056-0.882 0.056zm0.462-0.994c0.504 0 0.938-0.0513 1.302-0.154s0.639-0.238 0.826-0.406c0.196-0.1773 0.294-0.378 0.294-0.602 0-0.28-0.187-0.518-0.56-0.714-0.364-0.196-0.933-0.294-1.708-0.294-0.719 0-1.227 0.0933-1.526 0.28-0.289 0.1867-0.434 0.4667-0.434 0.84 0 0.364 0.14 0.63 0.42 0.798 0.289 0.168 0.751 0.252 1.386 0.252zm8.756 4.27c-0.541 0-1.04-0.0373-1.498-0.112-0.448-0.0747-0.84-0.168-1.176-0.28-0.326-0.1027-0.578-0.2053-0.756-0.308l0.28-1.26v-0.406c0.131 0.196 0.336 0.4013 0.616 0.616s0.63 0.3967 1.05 0.546 0.896 0.224 1.428 0.224c0.626 0 1.088-0.1027 1.386-0.308 0.308-0.2053 0.509-0.49 0.602-0.854 0.103-0.364 0.154-0.7793 0.154-1.246v-0.518l0.028-0.252-0.028-0.028c-0.121 0.1587-0.289 0.308-0.504 0.448-0.214 0.14-0.471 0.252-0.77 0.336-0.298 0.084-0.634 0.126-1.008 0.126-0.886 0-1.577-0.1493-2.072-0.448-0.485-0.2987-0.826-0.7047-1.022-1.218-0.186-0.5133-0.28-1.092-0.28-1.736 0-0.6533 0.094-1.2367 0.28-1.75 0.196-0.5133 0.537-0.9193 1.022-1.218 0.495-0.308 1.186-0.462 2.072-0.462 0.374 0 0.705 0.0373 0.994 0.112 0.29 0.0653 0.542 0.1587 0.756 0.28 0.215 0.112 0.392 0.2473 0.532 0.406l0.028-0.014-0.028-0.266v-0.378h1.708c-0.065 0.0093-0.13 0.0793-0.196 0.21-0.056 0.1307-0.084 0.35-0.084 0.658v5.362c0 1.3533-0.289 2.3147-0.868 2.884-0.569 0.5693-1.451 0.854-2.646 0.854zm-0.098-4.27c0.579 0 1.027-0.0887 1.344-0.266 0.318-0.1867 0.537-0.4573 0.658-0.812 0.122-0.364 0.182-0.8073 0.182-1.33 0-0.5133-0.065-0.952-0.196-1.316-0.121-0.364-0.34-0.644-0.658-0.84-0.308-0.196-0.751-0.294-1.33-0.294-0.522 0-0.933 0.1027-1.232 0.308-0.298 0.196-0.513 0.4807-0.644 0.854-0.121 0.364-0.182 0.798-0.182 1.302 0 0.4947 0.061 0.924 0.182 1.288 0.122 0.3547 0.332 0.63 0.63 0.826 0.308 0.1867 0.724 0.28 1.246 0.28zm8.755 0.994c-0.737 0-1.344-0.084-1.82-0.252-0.476-0.1773-0.849-0.42-1.12-0.728s-0.462-0.6673-0.574-1.078c-0.103-0.4107-0.154-0.8587-0.154-1.344 0-1.0547 0.299-1.89 0.896-2.506 0.607-0.616 1.503-0.924 2.688-0.924 0.691 0 1.246 0.0933 1.666 0.28 0.429 0.1867 0.751 0.434 0.966 0.742 0.224 0.308 0.373 0.644 0.448 1.008 0.084 0.3547 0.126 0.7047 0.126 1.05v0.658c0-0.028-0.131-0.056-0.392-0.084-0.252-0.0373-0.681-0.056-1.288-0.056h-3.682c0 0.6907 0.205 1.2367 0.616 1.638s1.022 0.602 1.834 0.602c0.7 0 1.274-0.084 1.722-0.252 0.457-0.1773 0.761-0.35 0.91-0.518v0.28l0.14 0.924c-0.205 0.1213-0.569 0.2473-1.092 0.378-0.513 0.1213-1.143 0.182-1.89 0.182zm-1.68-4.158h3.402c0-0.2427-0.051-0.4947-0.154-0.756s-0.285-0.4807-0.546-0.658c-0.261-0.1867-0.63-0.28-1.106-0.28-0.401 0-0.751 0.07-1.05 0.21-0.299 0.1307-0.532 0.3033-0.7 0.518-0.159 0.2147-0.238 0.4433-0.238 0.686 0 0.0933 0.028 0.1633 0.084 0.21s0.159 0.07 0.308 0.07zm6 4.018c0.065 0 0.126-0.0653 0.182-0.196 0.065-0.1307 0.098-0.3453 0.098-0.644v-4.732c0-0.2987-0.033-0.5087-0.098-0.63-0.056-0.1307-0.117-0.2007-0.182-0.21 0.411 0 0.765-0.028 1.064-0.084 0.308-0.0653 0.523-0.1307 0.644-0.196v0.7l-0.028 0.238 0.028 0.028c0.14-0.1867 0.308-0.35 0.504-0.49 0.205-0.1493 0.439-0.266 0.7-0.35s0.56-0.126 0.896-0.126c0.439 0 0.817 0.0653 1.134 0.196 0.327 0.1213 0.56 0.2473 0.7 0.378l-0.28 1.176v0.42c-0.121-0.1493-0.299-0.3033-0.532-0.462-0.224-0.168-0.481-0.308-0.77-0.42s-0.597-0.168-0.924-0.168c-0.373 0-0.705 0.1493-0.994 0.448s-0.434 0.7933-0.434 1.484v2.8c0 0.2987 0.028 0.5133 0.084 0.644 0.065 0.1307 0.131 0.196 0.196 0.196h-1.988z" fill="#AEAEAE"/>
<path d="m17.5 20c1.3807 0 2.5-1.1193 2.5-2.5s-1.1193-2.5-2.5-2.5-2.5 1.1193-2.5 2.5 1.1193 2.5 2.5 2.5z" fill="#4FB477" opacity=".3"/>
<path d="m5 15.5h4v4h-4v-4zm7-9.66-1.93 3.16h3.86l-1.93-3.16z" fill="#4FB477" opacity=".3"/>
<path d="m12 2-5.5 9h11l-5.5-9zm0 3.84 1.93 3.16h-3.87l1.94-3.16zm5.5 7.16c-2.49 0-4.5 2.01-4.5 4.5s2.01 4.5 4.5 4.5 4.5-2.01 4.5-4.5-2.01-4.5-4.5-4.5zm0 7c-1.38 0-2.5-1.12-2.5-2.5s1.12-2.5 2.5-2.5 2.5 1.12 2.5 2.5-1.12 2.5-2.5 2.5zm-6.5-6.5h-8v8h8v-8zm-2 6h-4v-4h4v4z" fill="#4FB477"/>
</svg>
